<svg width="461" height="411" viewBox="0 0 461 411" fill="none" xmlns="http://www.w3.org/2000/svg">
<g clip-path="url(#clip0)">
<path opacity="0.18" d="M199.608 33.2509C196.006 34.9216 192.455 36.7443 188.992 38.7188C148.35 61.8943 119.916 105.372 75.4326 119.814C63.4018 123.725 50.4611 124.788 40.7303 133.345C33.7149 139.772 27.6055 147.126 22.5703 155.204C11.9318 171.941 4.87477 190.706 1.84497 210.314C-4.23362 248.286 4.27135 291.042 34.4369 317.053C57.1842 336.608 90.8629 337.608 119.259 332.318C135.536 329.292 151.156 323.381 167.281 319.508C195.473 312.738 224.801 312.216 253.216 317.977C271.97 321.774 290.079 328.305 308.82 332.33C322.304 335.229 336.319 336.836 350.069 335.051C363.262 333.343 373.435 327.039 385.454 321.951C408.327 312.243 431.454 299.864 446.037 278.992C457.238 262.633 462.412 242.882 460.671 223.123C458.815 203.404 450.802 184.773 437.772 169.874C431.959 163.203 424.377 157.292 421.559 148.787C418.74 140.281 418.273 130.37 417.401 121.637C415.467 102.524 413.18 82.8422 403.866 66.0459C393.504 47.3511 375.167 33.985 355.187 26.4539C335.207 18.9228 313.61 16.7711 292.265 16.5179C260.571 16.1382 228.143 20.0367 199.608 33.2509Z" fill="#6EE4FF"/>
<path d="M182.219 295.32H278.503L261.468 233.996H196.587L182.219 295.32Z" fill="#68E1FD"/>
<path d="M182.219 295.32H278.503L261.468 233.996H196.587L182.219 295.32Z" fill="url(#paint0_linear)"/>
<path d="M374.585 70.0583V228.274C374.585 232.863 372.765 237.264 369.526 240.509C366.286 243.754 361.892 245.577 357.31 245.577H107.784C103.205 245.574 98.8141 243.749 95.5771 240.505C92.3401 237.26 90.5217 232.861 90.5217 228.274V70.0583C90.5217 65.4694 92.3418 61.0684 95.5816 57.8236C98.8213 54.5787 103.215 52.7558 107.797 52.7558H357.297C359.567 52.7541 361.815 53.2004 363.912 54.0692C366.01 54.938 367.916 56.2122 369.521 57.8191C371.127 59.4259 372.4 61.3339 373.269 63.434C374.138 65.534 374.585 67.785 374.585 70.0583Z" fill="#68E1FD"/>
<path d="M374.585 70.0583V208.808H90.5217V70.0583C90.5217 65.4682 92.3414 61.0659 95.5808 57.8191C98.8202 54.5722 103.214 52.7465 107.797 52.7431H357.297C361.88 52.7498 366.274 54.5762 369.514 57.822C372.755 61.0678 374.579 65.4681 374.585 70.0583Z" fill="#473F47"/>
<path d="M370.314 73.4125V204.226H94.8186V73.4125C94.8302 71.219 95.2732 69.0493 96.1224 67.0273C96.9716 65.0054 98.2103 63.1709 99.7677 61.6287C101.325 60.0865 103.171 58.8668 105.199 58.0393C107.227 57.2118 109.398 56.7928 111.588 56.8061H353.544C355.734 56.7928 357.905 57.2118 359.934 58.0393C361.962 58.8668 363.808 60.0865 365.365 61.6287C366.922 63.1709 368.161 65.0054 369.01 67.0273C369.859 69.0493 370.303 71.219 370.314 73.4125Z" fill="white"/>
<path opacity="0.18" d="M370.314 73.4125V204.226H94.8186V73.4125C94.8302 71.219 95.2732 69.0493 96.1224 67.0273C96.9716 65.0054 98.2103 63.1709 99.7677 61.6287C101.325 60.0865 103.171 58.8668 105.199 58.0393C107.227 57.2118 109.398 56.7928 111.588 56.8061H353.544C355.734 56.7928 357.905 57.2118 359.934 58.0393C361.962 58.8668 363.808 60.0865 365.365 61.6287C366.922 63.1709 368.161 65.0054 369.01 67.0273C369.859 69.0493 370.303 71.219 370.314 73.4125Z" fill="#68E1FD"/>
<path d="M135.802 149.052C133.097 138.395 128.927 128.105 126.791 117.308C124.655 106.511 124.643 95.4741 124.757 84.4876C124.618 80.894 125.071 77.3021 126.096 73.8555C127.297 70.476 129.887 67.3623 133.325 66.451L138.316 99.1701C139.29 105.587 140.288 112.081 142.689 118.156C145.09 124.232 149.008 129.826 154.695 133.003C152.838 123.65 151.572 114.189 150.903 104.676C150.524 99.4738 150.777 93.2844 155.061 90.3606C158.852 87.7152 164.451 89.0949 167.698 92.4237C170.946 95.7526 172.437 100.385 173.385 104.929C174.75 111.473 175.319 118.321 178.251 124.32C179.249 126.383 181.878 128.522 183.483 126.852C183.734 126.557 183.942 126.229 184.102 125.877L201.731 90.9808C203.349 87.7658 204.89 83.6269 202.59 80.855C200.846 78.7665 197.75 78.602 195.008 78.564C177.508 78.282 160.108 75.8591 143.194 71.3493C155.01 65.5396 168.469 64.4384 181.675 64.0081C192.531 63.6537 203.905 63.8056 213.509 68.9065C214.024 69.1359 214.482 69.4775 214.849 69.9064C215.242 70.5106 215.465 71.2105 215.493 71.9316C217.135 85.1956 214.85 98.6505 208.922 110.625C205.004 118.498 199.583 125.548 195.425 133.307C183.975 154.622 182.686 180.038 185.315 204.099C174.561 202.935 167.623 205.846 156.805 204.669C154.037 204.365 149.602 203.745 146.847 204.175C145.216 204.441 137.078 205.175 135.473 204.099C135.473 204.099 138.974 188.505 139.163 185.417C139.914 173.194 138.78 160.929 135.802 149.052Z" fill="url(#paint1_linear)"/>
<path d="M182.156 141.585C181.157 141.585 184.241 135.066 184.418 134.775C186.688 131.078 189.29 127.596 192.19 124.371C194.717 121.447 197.245 118.434 200.012 115.738C202.54 113.207 205.788 109.878 209.768 110.676C212.763 111.308 214.558 114.663 214.432 117.738C214.305 120.814 212.726 123.599 211.07 126.193C207.746 131.396 204.183 136.319 200.568 141.382L182.156 141.585Z" fill="white"/>
<path d="M159.118 145.091C160.078 145.306 158.397 138.268 158.296 137.952C156.83 133.871 154.998 129.932 152.824 126.181C150.929 122.776 149.121 119.333 146.935 116.055C144.926 113.093 142.474 109.131 138.418 109.119C135.359 109.119 132.908 112.03 132.402 115.055C131.897 118.08 132.87 121.156 133.957 124.029C136.143 129.813 138.62 135.421 141.135 141.028L159.118 145.091Z" fill="white"/>
<path d="M151.459 131.003H190.433C191.761 130.968 193.083 131.195 194.323 131.671C195.563 132.148 196.697 132.864 197.661 133.78C198.624 134.696 199.398 135.793 199.938 137.008C200.478 138.223 200.774 139.533 200.808 140.863V141.319C200.808 141.319 193.378 171.696 193.226 181.898C193.226 187.48 194.983 204.175 194.983 204.175H146.859C146.859 204.175 149.083 186.733 149.033 180.886C148.957 170.924 141.084 141.319 141.084 141.319C141.059 139.989 141.296 138.667 141.781 137.429C142.266 136.191 142.989 135.061 143.911 134.103C144.832 133.145 145.932 132.378 147.15 131.846C148.367 131.314 149.677 131.028 151.004 131.003H151.459Z" fill="white"/>
<path d="M223.215 73.6276C223.565 72.5449 223.635 71.3906 223.417 70.2735C223.087 69.2678 222.461 68.3854 221.622 67.742C220.591 66.853 219.377 66.2017 218.067 65.8342C216.757 65.4668 215.382 65.3921 214.04 65.6156C213.48 65.7051 212.949 65.9215 212.485 66.2484C212.066 66.6072 211.711 67.0353 211.436 67.5142C210.072 69.6532 208.669 72.2353 209.553 74.6149C210.186 75.76 210.878 76.8711 211.626 77.9438C212.03 78.7159 212.233 79.5766 212.612 80.3613C213.585 82.3359 217.325 84.9812 219.613 83.513C220.75 82.7915 221.18 80.336 221.597 79.1462C222.178 77.3742 222.734 75.5136 223.215 73.6276Z" fill="#FCA89E"/>
<path d="M126.033 70.2355C125.676 69.154 125.606 67.998 125.831 66.8813C126.16 65.8757 126.786 64.9933 127.625 64.3498C128.656 63.4608 129.87 62.8095 131.18 62.4421C132.491 62.0746 133.865 62 135.208 62.2234C135.767 62.3129 136.299 62.5294 136.762 62.8563C137.181 63.2151 137.536 63.6432 137.811 64.122C139.163 66.2611 140.578 68.8305 139.694 71.2228C139.061 72.3678 138.37 73.479 137.621 74.5516C137.217 75.3237 137.015 76.1844 136.636 76.9692C135.663 78.9437 131.922 81.5891 129.622 80.1208C128.497 79.3994 128.067 76.9439 127.65 75.7541C127.056 73.982 126.5 72.1214 126.033 70.2355Z" fill="#FCA89E"/>
<path d="M176.949 136.699C176.806 137.85 176.221 138.901 175.317 139.626C174.413 140.352 173.262 140.696 172.109 140.585C167.332 140.357 166.978 136.699 166.978 136.699V117.713H176.949V136.699Z" fill="#FCA89E"/>
<path d="M166.978 127.092C166.978 127.092 173.221 136.838 176.949 132.155V124.561L166.978 127.092Z" fill="url(#paint2_linear)"/>
<path d="M162.782 122.257C165.31 130.003 177.695 130.231 181.852 124.08C184.266 120.51 184.557 115.865 183.798 111.625C183.131 107.44 181.853 103.376 180.007 99.5624C178.744 97.1575 177.48 95.0185 174.535 94.6767C171.226 94.46 167.923 95.198 165.019 96.8031C162.267 98.2892 160.114 100.683 158.923 103.578C157.732 106.473 157.578 109.692 158.486 112.688C158.98 114.19 159.61 115.643 160.369 117.03C161.318 118.701 162.125 120.45 162.782 122.257Z" fill="#FCA89E"/>
<path d="M183.343 98.803C182.812 100.092 182.03 101.262 181.043 102.246C179.012 104.191 176.421 105.449 173.638 105.84C169.581 106.486 165.462 105.765 161.367 105.435C161.273 106.094 160.997 106.713 160.571 107.223C160.144 107.733 159.584 108.113 158.953 108.321C159.572 111.183 160.396 113.996 161.418 116.738C162.429 119.422 163.869 121.915 164.956 124.535C161.582 122.206 158.991 118.207 156.527 115.004C155.222 113.472 154.177 111.736 153.431 109.865C153.057 108.929 152.913 107.916 153.01 106.912C153.107 105.908 153.442 104.942 153.987 104.094C154.59 103.095 155.261 102.139 155.996 101.233C157.122 100.403 157.912 99.1943 158.22 97.8284C158.372 96.3981 157.563 95.0185 157.449 93.5755C157.413 93.3715 157.448 93.161 157.551 92.9807C157.677 92.8457 157.839 92.7492 158.018 92.7022L160.937 91.6137C160.673 91.0053 160.329 90.435 159.914 89.9176C161.627 89.0105 163.55 88.5738 165.487 88.6519C165.094 87.7428 164.579 86.8912 163.958 86.1204C164.609 85.8591 165.31 85.7441 166.011 85.7835C166.712 85.8228 167.396 86.0156 168.014 86.3482C169.379 86.8798 170.693 87.538 172.008 88.1835C172.13 87.0866 172.151 85.9808 172.071 84.88C173.806 84.738 175.532 85.2379 176.924 86.2849C178.339 87.0813 179.619 88.0982 180.715 89.2974C181.495 90.1772 182.081 91.2124 182.434 92.3351C182.787 93.6009 183.432 94.6388 183.697 95.8665C183.874 96.8588 183.751 97.8813 183.343 98.803Z" fill="#473F47"/>
<path d="M160.103 117.169C159.667 117.242 159.25 117.401 158.877 117.638C158.504 117.875 158.182 118.185 157.93 118.548C157.653 119.135 157.613 119.806 157.816 120.422C158.032 121.022 158.353 121.579 158.764 122.067C158.981 122.361 159.241 122.621 159.535 122.839C160.038 123.127 160.61 123.272 161.19 123.257C161.64 123.282 162.092 123.282 162.542 123.257C162.771 123.253 162.996 123.197 163.199 123.092C163.416 122.931 163.575 122.705 163.654 122.447C163.97 121.502 163.97 120.48 163.654 119.536C163.447 118.646 163.012 117.825 162.391 117.156C161.822 116.587 160.874 116.954 160.103 117.169Z" fill="#FCA89E"/>
<path d="M201.946 110.384C201.107 112.463 200.749 114.704 200.897 116.941C201.101 118.422 201.742 119.808 202.738 120.922C203.734 122.035 205.039 122.826 206.487 123.191C207.934 123.557 209.457 123.482 210.862 122.975C212.266 122.468 213.487 121.552 214.368 120.346C215.542 118.459 216.289 116.338 216.555 114.131C218.526 103.752 220.312 93.3477 221.913 82.9181C220.068 82.4245 214.33 79.8171 212.776 80.855C211.222 81.8929 209.705 88.4493 208.985 90.3732C207.721 93.7274 206.457 97.0816 205.32 100.499C204.183 103.613 203.5 107.448 201.946 110.384Z" fill="white"/>
<path d="M130.254 110.714C130.341 112.953 130.937 115.144 131.998 117.118C132.795 118.378 133.948 119.372 135.312 119.973C136.675 120.573 138.186 120.753 139.652 120.49C141.118 120.226 142.473 119.531 143.542 118.493C144.612 117.455 145.349 116.122 145.659 114.663C145.964 112.458 145.77 110.213 145.09 108.093C142.622 97.8242 139.972 87.6097 137.141 77.4501C135.258 77.7539 129.015 77.7159 127.966 79.3361C126.917 80.9562 128.27 87.4621 128.396 89.5885C128.623 93.1578 128.897 96.723 129.217 100.284C129.508 103.613 130.456 107.385 130.254 110.714Z" fill="white"/>
<path d="M216.39 20.7581H132.844V74.7541H216.39V20.7581Z" fill="#68E1FD"/>
<path d="M217.363 28.4791C221.851 28.4791 225.489 24.8353 225.489 20.3404C225.489 15.8456 221.851 12.2018 217.363 12.2018C212.876 12.2018 209.238 15.8456 209.238 20.3404C209.238 24.8353 212.876 28.4791 217.363 28.4791Z" fill="#68E1FD"/>
<path d="M217.363 28.4791C221.851 28.4791 225.489 24.8353 225.489 20.3404C225.489 15.8456 221.851 12.2018 217.363 12.2018C212.876 12.2018 209.238 15.8456 209.238 20.3404C209.238 24.8353 212.876 28.4791 217.363 28.4791Z" fill="url(#paint3_linear)"/>
<path d="M277.05 156.748H237.596C236.786 156.748 236.13 157.405 236.13 158.216V158.229C236.13 159.04 236.786 159.697 237.596 159.697H277.05C277.86 159.697 278.516 159.04 278.516 158.229V158.216C278.516 157.405 277.86 156.748 277.05 156.748Z" fill="#68E1FD"/>
<path d="M326.664 156.748H287.21C286.401 156.748 285.744 157.405 285.744 158.216V158.229C285.744 159.04 286.401 159.697 287.21 159.697H326.664C327.474 159.697 328.13 159.04 328.13 158.229V158.216C328.13 157.405 327.474 156.748 326.664 156.748Z" fill="#68E1FD"/>
<path d="M301.579 163.393H237.596C236.786 163.393 236.13 164.051 236.13 164.861V164.874C236.13 165.685 236.786 166.342 237.596 166.342H301.579C302.389 166.342 303.045 165.685 303.045 164.874V164.861C303.045 164.051 302.389 163.393 301.579 163.393Z" fill="#68E1FD"/>
<path d="M277.05 170.026H237.596C236.786 170.026 236.13 170.683 236.13 171.494V171.507C236.13 172.317 236.786 172.975 237.596 172.975H277.05C277.86 172.975 278.516 172.317 278.516 171.507V171.494C278.516 170.683 277.86 170.026 277.05 170.026Z" fill="#68E1FD"/>
<path d="M326.664 170.026H287.21C286.401 170.026 285.744 170.683 285.744 171.494V171.507C285.744 172.317 286.401 172.975 287.21 172.975H326.664C327.474 172.975 328.13 172.317 328.13 171.507V171.494C328.13 170.683 327.474 170.026 326.664 170.026Z" fill="#68E1FD"/>
<path d="M291.52 129.763C275.382 129.244 262.454 123.902 262.656 117.852C262.656 117.435 262.82 112.308 262.947 111.903C262.947 111.903 263.604 112.081 263.604 112.068C265.461 106.663 277.239 107.347 292.227 107.828C305.396 108.258 316.959 107.625 320.472 112.232C321.268 113.27 321.129 118.637 321.091 119.751C320.889 125.75 307.658 130.294 291.52 129.763Z" fill="#68E1FD"/>
<path d="M291.52 129.763C275.382 129.244 262.454 123.902 262.656 117.852C262.656 117.435 262.883 111.675 262.883 111.675C264.741 106.271 277.239 107.347 292.227 107.878C305.396 108.309 317.502 109.448 321.041 114.055C321.041 114.055 321.129 118.688 321.041 119.801C320.889 125.75 307.658 130.294 291.52 129.763Z" fill="url(#paint4_linear)"/>
<path d="M291.457 124.485C275.331 123.966 262.669 118.738 262.871 112.675V111.486C264.728 106.081 277.151 102.069 292.152 102.55C305.307 102.98 316.327 106.613 319.84 111.22C320.597 112.134 321.008 113.285 321.003 114.473C320.826 120.561 307.582 125.054 291.457 124.485Z" fill="#68E1FD"/>
<path d="M319.853 111.258L293.087 111.891L262.858 112.599C262.82 112.242 262.82 111.881 262.858 111.524C264.273 107.41 271.704 104.03 281.903 102.942C285.303 102.59 288.723 102.471 292.139 102.588C305.358 102.967 316.34 106.651 319.853 111.258Z" fill="url(#paint5_linear)"/>
<path d="M277.745 122.789L293.087 111.891L262.858 112.599C262.858 112.599 261.342 118.688 277.745 122.789Z" fill="url(#paint6_linear)"/>
<path d="M293.782 109.41L263.275 110.119C263.313 109.691 263.389 109.267 263.503 108.853C264.918 104.752 272.5 101.55 282.61 100.436L293.782 109.41Z" fill="#68E1FD"/>
<path d="M293.087 111.891L293.782 109.41L263.275 110.119L293.087 111.891Z" fill="#68E1FD"/>
<path d="M293.087 111.891L293.782 109.41L263.275 110.119L262.883 111.524L293.087 111.891Z" fill="url(#paint7_linear)"/>
<path d="M277.745 122.789L278.453 120.244L293.542 110.245L293.087 111.891L277.745 122.789Z" fill="url(#paint8_linear)"/>
<path d="M293.542 110.245L262.883 111.511C262.883 111.511 266.03 117.966 278.453 120.232L293.542 110.245Z" fill="#68E1FD"/>
<path d="M278.453 120.244L276.393 127.687C276.393 127.687 263.755 124.497 262.706 118.624L262.883 111.524C262.883 111.524 266.548 119.561 278.453 120.244Z" fill="#68E1FD"/>
<path d="M278.453 120.244L276.393 127.687C276.393 127.687 263.755 124.497 262.706 118.624L262.883 111.524C262.883 111.524 266.548 119.561 278.453 120.244Z" fill="url(#paint9_linear)"/>
<path d="M277.619 106.676L273.334 93.4363L257.828 88.1456L257.967 87.7405L273.676 93.1072L273.701 93.2085L278.023 106.549L277.619 106.676Z" fill="#68E1FD"/>
<path d="M256.236 89.0442C255.763 88.9418 255.351 88.6556 255.089 88.2485C254.827 87.8414 254.737 87.3468 254.84 86.8735C254.942 86.4002 255.228 85.9869 255.634 85.7246C256.04 85.4623 256.534 85.3725 257.007 85.4749H257.209C257.682 85.5773 258.094 85.8635 258.356 86.2706C258.618 86.6777 258.708 87.1723 258.606 87.6456C258.503 88.1189 258.218 88.5322 257.811 88.7945C257.405 89.0568 256.911 89.1466 256.438 89.0442H256.236ZM257.108 85.9432C256.841 85.8685 256.558 85.8748 256.294 85.9613C256.031 86.0477 255.799 86.2105 255.627 86.4289C255.456 86.6474 255.353 86.9118 255.332 87.1887C255.311 87.4656 255.372 87.7427 255.508 87.9848C255.644 88.2269 255.848 88.4233 256.096 88.549C256.343 88.6748 256.622 88.7244 256.897 88.6915C257.172 88.6586 257.432 88.5446 257.643 88.3641C257.853 88.1836 258.006 87.9446 258.081 87.6772C258.167 87.3251 258.114 86.9533 257.932 86.6396C257.751 86.3259 257.456 86.0945 257.108 85.9938V85.9432Z" fill="#68E1FD"/>
<path d="M296.815 104.486L296.537 104.17L307.19 94.9045L307.291 94.9299L323.404 98.4359L323.316 98.8536L307.304 95.3602L296.815 104.486Z" fill="#68E1FD"/>
<path d="M324.188 100.436C323.722 100.307 323.326 99.9972 323.088 99.5759C322.85 99.1546 322.788 98.6557 322.917 98.1891C323.046 97.7225 323.355 97.3264 323.776 97.0878C324.197 96.8492 324.695 96.7878 325.161 96.9171C325.623 97.0527 326.015 97.3644 326.251 97.7855C326.487 98.2066 326.549 98.7036 326.424 99.1701C326.295 99.6345 325.986 100.029 325.567 100.266C325.148 100.503 324.652 100.564 324.188 100.436ZM325.047 97.3221C324.779 97.2458 324.494 97.2512 324.229 97.3375C323.964 97.4238 323.731 97.5873 323.559 97.8069C323.387 98.0265 323.285 98.2925 323.264 98.5708C323.244 98.8491 323.307 99.1272 323.445 99.3696C323.583 99.612 323.79 99.8077 324.039 99.9319C324.289 100.056 324.57 100.103 324.846 100.067C325.122 100.03 325.381 99.9122 325.591 99.7278C325.8 99.5433 325.949 99.3007 326.02 99.0308C326.11 98.6752 326.059 98.2985 325.878 97.9799C325.696 97.6613 325.398 97.4255 325.047 97.3221Z" fill="#68E1FD"/>
<path d="M334.045 140.37C333.691 140.279 333.371 140.087 333.125 139.818C332.879 139.548 332.718 139.212 332.66 138.851C332.602 138.49 332.651 138.12 332.8 137.787C332.95 137.453 333.194 137.171 333.501 136.975C333.809 136.778 334.167 136.676 334.532 136.681C334.897 136.686 335.252 136.798 335.555 137.003C335.857 137.208 336.093 137.496 336.233 137.834C336.373 138.171 336.412 138.542 336.345 138.901C336.345 138.965 336.345 139.041 336.345 139.104C336.281 139.341 336.17 139.563 336.019 139.756C335.867 139.949 335.679 140.109 335.464 140.227C335.249 140.345 335.012 140.419 334.769 140.443C334.525 140.468 334.279 140.443 334.045 140.37ZM334.904 137.269C334.637 137.194 334.354 137.2 334.09 137.287C333.827 137.373 333.595 137.536 333.423 137.754C333.252 137.973 333.149 138.237 333.128 138.514C333.107 138.791 333.168 139.068 333.304 139.31C333.44 139.552 333.644 139.749 333.891 139.874C334.139 140 334.418 140.05 334.693 140.017C334.968 139.984 335.228 139.87 335.438 139.689C335.649 139.509 335.802 139.27 335.877 139.003C335.975 138.647 335.929 138.267 335.749 137.945C335.569 137.623 335.27 137.384 334.917 137.281L334.904 137.269Z" fill="#68E1FD"/>
<path d="M332.92 138.382L317.414 134.054L317.363 134.016L304.802 119.814L305.118 119.536L317.641 133.687L333.034 137.977L332.92 138.382Z" fill="#68E1FD"/>
<path d="M240.174 117.055C239.828 116.957 239.519 116.758 239.286 116.484C239.052 116.21 238.905 115.873 238.863 115.516C238.821 115.158 238.885 114.796 239.048 114.475C239.211 114.154 239.465 113.889 239.779 113.712C240.092 113.536 240.451 113.456 240.809 113.484C241.168 113.511 241.51 113.645 241.793 113.867C242.076 114.089 242.287 114.39 242.399 114.732C242.511 115.074 242.52 115.442 242.423 115.789C242.361 116.021 242.252 116.239 242.105 116.429C241.957 116.619 241.773 116.777 241.564 116.895C241.355 117.013 241.124 117.088 240.885 117.115C240.646 117.143 240.405 117.122 240.174 117.055ZM241.046 113.941C240.779 113.866 240.496 113.873 240.232 113.959C239.969 114.046 239.737 114.208 239.565 114.427C239.394 114.645 239.291 114.91 239.27 115.187C239.249 115.464 239.31 115.741 239.446 115.983C239.582 116.225 239.786 116.421 240.033 116.547C240.281 116.673 240.56 116.722 240.835 116.689C241.11 116.657 241.37 116.543 241.581 116.362C241.791 116.182 241.944 115.943 242.019 115.675C242.117 115.316 242.069 114.933 241.887 114.609C241.705 114.284 241.403 114.044 241.046 113.941Z" fill="#68E1FD"/>
<path d="M257.677 120.257L242.158 115.928L242.272 115.523L257.677 119.814L275.698 114.169L275.824 114.574L257.677 120.257Z" fill="#68E1FD"/>
<path d="M343.396 135.332H355.554C356.224 135.332 356.867 135.599 357.341 136.073C357.815 136.548 358.081 137.192 358.081 137.863C358.081 138.535 357.815 139.179 357.341 139.653C356.867 140.128 356.224 140.395 355.554 140.395H343.396C342.726 140.395 342.083 140.128 341.609 139.653C341.135 139.179 340.869 138.535 340.869 137.863C340.869 137.192 341.135 136.548 341.609 136.073C342.083 135.599 342.726 135.332 343.396 135.332Z" fill="#68E1FD"/>
<path d="M332.414 94.778H344.534C345.204 94.778 345.847 95.0447 346.321 95.5194C346.795 95.9942 347.061 96.6381 347.061 97.3094C347.061 97.9808 346.795 98.6247 346.321 99.0995C345.847 99.5742 345.204 99.8409 344.534 99.8409H332.376C331.706 99.8409 331.063 99.5742 330.589 99.0995C330.115 98.6247 329.849 97.9808 329.849 97.3094C329.849 96.9738 329.916 96.6415 330.045 96.3318C330.174 96.0222 330.364 95.7414 330.603 95.5059C330.841 95.2703 331.124 95.0846 331.435 94.9597C331.747 94.8347 332.079 94.773 332.414 94.778Z" fill="#68E1FD"/>
<path d="M249.248 78.0197H261.405C262.075 78.0197 262.718 78.2864 263.192 78.7612C263.666 79.2359 263.932 79.8798 263.932 80.5512C263.932 81.2226 263.666 81.8664 263.192 82.3412C262.718 82.8159 262.075 83.0826 261.405 83.0826H249.248C248.577 83.0826 247.934 82.8159 247.46 82.3412C246.986 81.8664 246.72 81.2226 246.72 80.5512C246.72 79.8798 246.986 79.2359 247.46 78.7612C247.934 78.2864 248.577 78.0197 249.248 78.0197Z" fill="#68E1FD"/>
<path d="M227.36 120.232H239.517C240.187 120.232 240.83 120.499 241.304 120.973C241.778 121.448 242.044 122.092 242.044 122.763C242.044 123.435 241.778 124.079 241.304 124.553C240.83 125.028 240.187 125.295 239.517 125.295H227.36C226.689 125.295 226.046 125.028 225.572 124.553C225.098 124.079 224.832 123.435 224.832 122.763C224.832 122.092 225.098 121.448 225.572 120.973C226.046 120.499 226.689 120.232 227.36 120.232Z" fill="#68E1FD"/>
<path d="M137.073 53V43.0605H139.097V51.3115H144.128V53H137.073ZM145.119 49.2676C145.119 48.6296 145.276 48.012 145.591 47.415C145.905 46.818 146.35 46.3623 146.924 46.0479C147.503 45.7334 148.147 45.5762 148.858 45.5762C149.957 45.5762 150.857 45.9339 151.559 46.6494C152.26 47.3604 152.611 48.2604 152.611 49.3496C152.611 50.4479 152.256 51.3594 151.545 52.084C150.839 52.804 149.948 53.1641 148.872 53.1641C148.207 53.1641 147.571 53.0137 146.965 52.7129C146.363 52.4121 145.905 51.9723 145.591 51.3936C145.276 50.8102 145.119 50.1016 145.119 49.2676ZM147.088 49.3701C147.088 50.0902 147.259 50.6416 147.601 51.0244C147.942 51.4072 148.364 51.5986 148.865 51.5986C149.367 51.5986 149.786 51.4072 150.123 51.0244C150.465 50.6416 150.636 50.0856 150.636 49.3564C150.636 48.6455 150.465 48.0986 150.123 47.7158C149.786 47.333 149.367 47.1416 148.865 47.1416C148.364 47.1416 147.942 47.333 147.601 47.7158C147.259 48.0986 147.088 48.6501 147.088 49.3701ZM153.944 53.4785L156.139 53.7451C156.175 54.0003 156.259 54.1758 156.392 54.2715C156.574 54.4082 156.861 54.4766 157.253 54.4766C157.754 54.4766 158.13 54.4014 158.381 54.251C158.549 54.1507 158.677 53.9889 158.764 53.7656C158.823 53.6061 158.853 53.3122 158.853 52.8838V51.8242C158.278 52.6081 157.554 53 156.679 53C155.703 53 154.931 52.5876 154.361 51.7627C153.915 51.111 153.691 50.2998 153.691 49.3291C153.691 48.1123 153.983 47.1826 154.566 46.54C155.154 45.8975 155.883 45.5762 156.754 45.5762C157.652 45.5762 158.392 45.9704 158.976 46.7588V45.7402H160.773V52.2549C160.773 53.1117 160.703 53.752 160.562 54.1758C160.42 54.5996 160.222 54.9323 159.967 55.1738C159.712 55.4154 159.37 55.6045 158.941 55.7412C158.518 55.8779 157.98 55.9463 157.328 55.9463C156.098 55.9463 155.225 55.7344 154.71 55.3105C154.195 54.8913 153.938 54.3581 153.938 53.7109C153.938 53.6471 153.94 53.5697 153.944 53.4785ZM155.66 49.2197C155.66 49.9899 155.808 50.555 156.104 50.915C156.405 51.2705 156.774 51.4482 157.212 51.4482C157.681 51.4482 158.078 51.266 158.401 50.9014C158.725 50.5322 158.887 49.9876 158.887 49.2676C158.887 48.5156 158.732 47.9574 158.422 47.5928C158.112 47.2282 157.72 47.0459 157.246 47.0459C156.786 47.0459 156.405 47.2259 156.104 47.5859C155.808 47.9414 155.66 48.486 155.66 49.2197ZM162.681 44.7559V42.9785H164.602V44.7559H162.681ZM162.681 53V45.7402H164.602V53H162.681ZM173.181 53H171.26V49.2949C171.26 48.5111 171.219 48.0052 171.137 47.7773C171.055 47.5449 170.92 47.3649 170.733 47.2373C170.551 47.1097 170.33 47.0459 170.07 47.0459C169.738 47.0459 169.439 47.137 169.175 47.3193C168.91 47.5016 168.728 47.7432 168.628 48.0439C168.532 48.3447 168.484 48.9007 168.484 49.7119V53H166.563V45.7402H168.348V46.8066C168.981 45.9863 169.779 45.5762 170.74 45.5762C171.164 45.5762 171.551 45.6536 171.902 45.8086C172.253 45.959 172.518 46.1527 172.695 46.3896C172.878 46.6266 173.003 46.8955 173.071 47.1963C173.144 47.4971 173.181 47.9277 173.181 48.4883V53ZM179.053 53V42.9785H181.076V46.9229H185.041V42.9785H187.064V53H185.041V48.6182H181.076V53H179.053ZM193.354 50.6895L195.268 51.0107C195.021 51.7126 194.632 52.248 194.099 52.6172C193.57 52.9818 192.907 53.1641 192.109 53.1641C190.847 53.1641 189.913 52.7516 189.307 51.9268C188.828 51.266 188.589 50.432 188.589 49.4248C188.589 48.2217 188.903 47.2806 189.532 46.6016C190.161 45.918 190.956 45.5762 191.918 45.5762C192.998 45.5762 193.85 45.9339 194.475 46.6494C195.099 47.3604 195.397 48.4518 195.37 49.9238H190.558C190.571 50.4935 190.726 50.9378 191.022 51.2568C191.319 51.5713 191.688 51.7285 192.13 51.7285C192.431 51.7285 192.684 51.6465 192.889 51.4824C193.094 51.3184 193.249 51.054 193.354 50.6895ZM193.463 48.748C193.449 48.1921 193.306 47.7705 193.032 47.4834C192.759 47.1917 192.426 47.0459 192.034 47.0459C191.615 47.0459 191.269 47.1986 190.995 47.5039C190.722 47.8092 190.587 48.224 190.592 48.748H193.463ZM198.781 53H196.86V45.7402H198.645V46.7725C198.95 46.2848 199.223 45.9635 199.465 45.8086C199.711 45.6536 199.989 45.5762 200.299 45.5762C200.736 45.5762 201.158 45.6969 201.563 45.9385L200.969 47.6133C200.645 47.4036 200.344 47.2988 200.066 47.2988C199.798 47.2988 199.57 47.374 199.383 47.5244C199.196 47.6702 199.048 47.9368 198.938 48.3242C198.834 48.7116 198.781 49.5228 198.781 50.7578V53ZM206.602 50.6895L208.516 51.0107C208.27 51.7126 207.88 52.248 207.347 52.6172C206.818 52.9818 206.155 53.1641 205.357 53.1641C204.095 53.1641 203.161 52.7516 202.555 51.9268C202.076 51.266 201.837 50.432 201.837 49.4248C201.837 48.2217 202.151 47.2806 202.78 46.6016C203.409 45.918 204.204 45.5762 205.166 45.5762C206.246 45.5762 207.098 45.9339 207.723 46.6494C208.347 47.3604 208.646 48.4518 208.618 49.9238H203.806C203.819 50.4935 203.974 50.9378 204.271 51.2568C204.567 51.5713 204.936 51.7285 205.378 51.7285C205.679 51.7285 205.932 51.6465 206.137 51.4824C206.342 51.3184 206.497 51.054 206.602 50.6895ZM206.711 48.748C206.697 48.1921 206.554 47.7705 206.28 47.4834C206.007 47.1917 205.674 47.0459 205.282 47.0459C204.863 47.0459 204.517 47.1986 204.243 47.5039C203.97 47.8092 203.835 48.224 203.84 48.748H206.711ZM210.942 50.416L210.443 45.3301V42.9785H212.521V45.3301L212.029 50.416H210.942ZM210.525 53V51.0791H212.446V53H210.525Z" fill="white"/>
<path d="M68.4623 86.4948C66.0272 95.5969 57.9794 92.8669 48.8913 90.428C39.8032 87.9891 35.7492 87.4714 38.1843 78.3693C40.6195 69.2672 43.3165 68.265 52.4045 70.7039C61.4926 73.1428 70.8975 77.3927 68.4623 86.4948Z" fill="#D7F7FF"/>
<path d="M429.199 109.189C433.904 101.028 440.972 105.751 449.12 110.463C457.268 115.174 461.05 116.725 456.346 124.886C451.642 133.047 448.778 133.316 440.629 128.604C432.481 123.893 424.495 117.35 429.199 109.189Z" fill="#D7F7FF"/>
</g>
<path d="M225 373.048C225 394.008 196.392 411 175.261 411C154.13 411 137 406.912 137 385.952C137 364.992 154.13 348 175.261 348C196.392 348 225 352.088 225 373.048Z" fill="#D7F7FF"/>
<path d="M231.846 347.667C236.55 339.519 243.618 344.235 251.766 348.939C259.914 353.643 263.697 355.192 258.992 363.34C254.288 371.488 251.424 371.757 243.276 367.053C235.127 362.348 227.141 355.815 231.846 347.667Z" fill="#D7F7FF"/>
<defs>
<linearGradient id="paint0_linear" x1="235.902" y1="220.452" x2="225.52" y2="360.174" gradientUnits="userSpaceOnUse">
<stop offset="0.01"/>
<stop offset="0.08" stop-opacity="0.69"/>
<stop offset="0.21" stop-opacity="0.32"/>
<stop offset="1" stop-opacity="0"/>
</linearGradient>
<linearGradient id="paint1_linear" x1="18990.1" y1="-6544.86" x2="-10419.3" y2="-70060" gradientUnits="userSpaceOnUse">
<stop offset="0.01"/>
<stop offset="0.08" stop-opacity="0.69"/>
<stop offset="0.21" stop-opacity="0.32"/>
<stop offset="1" stop-opacity="0"/>
</linearGradient>
<linearGradient id="paint2_linear" x1="1724.13" y1="-1833.83" x2="1688.78" y2="-1497.41" gradientUnits="userSpaceOnUse">
<stop offset="0.01"/>
<stop offset="0.08" stop-opacity="0.69"/>
<stop offset="0.21" stop-opacity="0.32"/>
<stop offset="1" stop-opacity="0"/>
</linearGradient>
<linearGradient id="paint3_linear" x1="3129.04" y1="-4615" x2="3779.07" y2="-4453.52" gradientUnits="userSpaceOnUse">
<stop offset="0.01"/>
<stop offset="0.08" stop-opacity="0.69"/>
<stop offset="0.21" stop-opacity="0.32"/>
<stop offset="1" stop-opacity="0"/>
</linearGradient>
<linearGradient id="paint4_linear" x1="30223.1" y1="1449.11" x2="31518.9" y2="-1916.6" gradientUnits="userSpaceOnUse">
<stop offset="0.01"/>
<stop offset="0.08" stop-opacity="0.69"/>
<stop offset="0.21" stop-opacity="0.32"/>
<stop offset="1" stop-opacity="0"/>
</linearGradient>
<linearGradient id="paint5_linear" x1="300.597" y1="142.974" x2="278.295" y2="83.641" gradientUnits="userSpaceOnUse">
<stop offset="0.01" stop-color="white"/>
<stop offset="1" stop-color="white" stop-opacity="0"/>
</linearGradient>
<linearGradient id="paint6_linear" x1="15398.4" y1="847.577" x2="15723.8" y2="-11.9224" gradientUnits="userSpaceOnUse">
<stop offset="0.01"/>
<stop offset="0.08" stop-opacity="0.69"/>
<stop offset="0.21" stop-opacity="0.32"/>
<stop offset="1" stop-opacity="0"/>
</linearGradient>
<linearGradient id="paint7_linear" x1="14979.2" y1="3681.39" x2="14950.5" y2="3818.58" gradientUnits="userSpaceOnUse">
<stop offset="0.01"/>
<stop offset="0.08" stop-opacity="0.69"/>
<stop offset="0.21" stop-opacity="0.32"/>
<stop offset="1" stop-opacity="0"/>
</linearGradient>
<linearGradient id="paint8_linear" x1="8837.67" y1="-1881.66" x2="8831.66" y2="-1617.32" gradientUnits="userSpaceOnUse">
<stop offset="0.01"/>
<stop offset="0.08" stop-opacity="0.69"/>
<stop offset="0.21" stop-opacity="0.32"/>
<stop offset="1" stop-opacity="0"/>
</linearGradient>
<linearGradient id="paint9_linear" x1="8738.5" y1="-3180.75" x2="9867.53" y2="-2833.98" gradientUnits="userSpaceOnUse">
<stop offset="0.01"/>
<stop offset="0.08" stop-opacity="0.69"/>
<stop offset="0.21" stop-opacity="0.32"/>
<stop offset="1" stop-opacity="0"/>
</linearGradient>
<clipPath id="clip0">
<rect width="461" height="348" fill="white"/>
</clipPath>
</defs>
</svg>
